<svg xmlns="http://www.w3.org/2000/svg" viewBox="0 50 250 150"><defs><style>.cls-1{fill:#1e2326;}.cls-2{fill:#666;}.cls-3{fill:#333;}.cls-4{fill:#fff;}.cls-5{fill:#4e4e50;}.cls-6{fill:#0d0d0d;}.cls-7{fill:#16743b;}.cls-8{fill:#213d2d;}.cls-9{fill:#29b258;}</style></defs><title>ada_dad_hatAsset 8</title><g id="Layer_2" data-name="Layer 2"><g id="Layer_1-2" data-name="Layer 1"><path class="cls-1" d="M155.32,150.7l-3.29-18c-12.24-9.77-58.51-20.07-74.6-23.47L30.27,144.82,28,148.05l17.5-5,90.23-1.71,9.59-1.64,1.43,8.37-10.22,1.75h-.32l-90.77-1L31.81,151h3.57l65.2,17.3Z"/><polygon class="cls-1" points="764.76 428.26 764.76 428.26 764.76 428.26 764.76 428.26"/><path class="cls-1" d="M671.19,376.9c.22,0,.48-.07.79-.1A5.09,5.09,0,0,0,671.19,376.9Z"/><polygon class="cls-1" points="976.14 452.97 990.8 452.21 990.88 451.57 976.14 452.97"/><polygon class="cls-1" points="726.11 323.2 762.12 310.33 581 262.7 587.22 266.69 726.11 323.2"/><path class="cls-1" d="M471.84,241.06,470,243.35c-7.33,9-10.54,9.35-11.6,9.46a5.14,5.14,0,0,1-.52,0c-2.58,0-13.54-.48-28.54-1.19l9.16,16.9L470,283.28l1.4.24v-.26h122.8L581.33,278l-50.67-32.51-67.95-19.94Z"/><polygon class="cls-1" points="593.48 332.91 560.4 307.43 557.15 306.87 581.37 330.26 554.87 338.03 554.54 338.02 531.53 337.58 555.4 341.07 593.48 332.91"/><polygon class="cls-1" points="142.13 328.72 133.3 302.38 134.89 365.13 138.79 371.02 195.77 406.69 142.13 328.72"/><path class="cls-1" d="M461.48,240.21l-3.31-5.61-66,6.72c31.85,1.59,60.29,3,65,3A31.14,31.14,0,0,0,461.48,240.21Z"/><polygon class="cls-1" points="455.79 230.57 450.78 222.09 443.96 220.08 369.51 239.35 455.79 230.57"/><polygon class="cls-1" points="508.82 332.89 554.3 333.77 573.17 328.24 557.06 312.68 563.65 327.2 508.82 332.89"/><polygon class="cls-1" points="784.91 347.12 864.27 379.55 920.78 381.65 910.79 375.92 738.09 328.07 784.91 347.12"/><polygon class="cls-1" points="685.2 320.3 673.79 326.9 578.3 310.5 605.83 331.7 599.63 340.27 596.34 340.98 761.29 363.3 771.86 355.56 685.2 320.3"/><polygon class="cls-1" points="675.24 316.25 644.13 303.59 549.59 296.96 672.2 318.01 675.24 316.25"/><polygon class="cls-1" points="935.44 390.05 928.71 386.19 882.57 384.48 935.44 390.05"/><polygon class="cls-1" points="486.28 330.96 557.35 323.59 549.13 305.49 467.38 291.45 432.55 275.14 431.28 276.33 403.96 276.33 437.82 308.76 437.82 323.88 486.28 330.96"/><polygon class="cls-1" points="507.68 289.76 631.49 298.45 604.59 287.5 494.57 287.5 507.68 289.76"/><polygon class="cls-1" points="414.62 320.11 406.64 325 429.33 325 429.33 312.38 391.68 276.33 391.33 276.33 420.74 312.55 414.62 320.11"/><polygon class="cls-1" points="378 505.84 344.88 497.22 353.89 513.41 361.48 575.93 340.9 631.11 326.96 688.47 283.53 706.61 322.88 696.27 359.28 707.55 336.86 693.79 350.77 633.13 360.36 627.58 401.42 556.63 406.01 505.84 378 505.84"/><polygon class="cls-1" points="819.87 429.23 810.76 430.4 890.38 457.39 967.59 453.41 819.87 429.23"/><polygon class="cls-1" points="967.11 437.51 859.77 431.46 969.17 449.37 991.42 447.25 991.66 445.37 967.23 435.38 967.11 437.51"/><polygon class="cls-1" points="961.23 432.93 920.38 416.24 842.88 426.25 961.23 432.93"/><polygon class="cls-1" points="944.57 395.28 888.24 389.35 911.88 399.01 982.21 408.98 945.39 395.75 944.57 395.28"/><polygon class="cls-1" points="168.56 394.66 144.47 379.58 184.76 440.36 187.17 441.25 168.56 394.66"/><path class="cls-1" d="M713.18,410.77l-160.3,3.34-29.45,16.46-2.23-.38L387.78,407,282.32,326.9l-9.18-47.11,17.06,43L392.77,395l128.39,22.29,7.9-4.42-86.4-33L539,407.3l10.47-5.85L715.15,398l53.61,18.18.09,0h0l32.77,11.11L912.42,413,781.09,359.32,773,365.27,785.41,380l-5,8.77-2.57-.1c-39.39-1.48-98.93-3.6-104.88-3.44-1.12.18-2.75-.08-6.43-.67-2.92-.46-7.16-1.17-12.6-2.11-8.79-1.51-20.86-3.63-35.87-6.31l10.18,5.7-16.34,11.81L486.21,374.53l.5-4.22,122.88,14.52,4-2.91-12.48-8.81c-21.28-3.82-39.34-7.1-39.56-7.14l.8-4.4c41.24,7.5,104.59,14.76,109.67,15.23,2-.16,6.34,0,17.11.29,8.82.25,21.06.66,36.37,1.19,20.22.71,40.57,1.46,48.81,1.77l-8.23-9.76-2.56,1.88L571.83,346.23l-16.14,3.46-.76-.11-36-5.26-23.25,11.37L390.33,342.8l1-8.43L494.25,347l9.84-4.81-66.27-9.69v1l-42.17-1.27c-1.19,0-70.26-27.58-70.42-27.65l3.31-7.81c24.89,10.56,62.62,26.44,67.73,28.24h2.25l13.26-8.12,3.5-4.33-29.42-36.22H360.93L366.2,284l-13,2.74-31.84-13.49,31.44,6.32-4.06-8.87,79.2-2.87.32-.31-8.87-16.36c-26.12-1.27-60.1-3-84.81-4.28l-1.13-.06L292.67,210.5l43.48,28,16.56.85L436,217.75,327.71,186l-1-.92L202,76.33l-82.19-12L85.16,103.45l-.64.47c7.55,1.47,57.81,11.27,72.84,24.62l.94.84,7.34,26.93L104.36,176l49.28,147L225.23,427,328.88,479.9l50.75,13.2h21.48l-7.79-11.62,10.48,3.7,35.05,45.1L468.38,547l26,99.66,5.44,4.76-25.5,61.4s-34.46,13.6-36.36,14.22l40.26-8.17,19.46,5.24-8.92-3.72h0l-7.81-3.25,3.93-7.5h0L512.39,657l2.67-55.45L511.59,534l16-27.2L684,438.34l-79,13.47L697,430l-81.71,1.49,88.17-7.65.24-.35,2.82-.36c.15,0,14.76-1.93,29.32-3.76l1.94-.24ZM186,135.46a23.56,23.56,0,1,1,23.56-23.56A23.58,23.58,0,0,1,186,135.46Z"/><polygon class="cls-1" points="180.24 412.45 192.53 443.22 202.66 446.94 180.24 412.45"/><polygon class="cls-1" points="215.65 435.59 201.82 415.48 177.29 400.13 209.31 449.39 270.92 472.07 282.82 470.71 216.57 436.92 215.65 435.59"/><path class="cls-1" d="M186,92.59a19.32,19.32,0,1,0,19.31,19.31A19.32,19.32,0,0,0,186,92.59Z"/><path class="cls-1" d="M915.73,364.08,765.81,322.54l17.32-6.19L776,300.82,546.23,240.39,536,233.83l-202-59.3L209,65.5l-1.41-1.23-92.7-13.5L76.47,94,21,135.87,1.51,163.69h32.2L92,179.16l31.58,94.21-1.33,95.75,54.13,81.64,93.77,36.54,37-4.21,16.61,8.47.62.32.56.14,16.87,25.78L351,576.49l-19,51.44-12.7,54.55-46,19.2v16.4l49.37-13L375,721.3V707.22L345.93,689.4,360,641.14l8.57-6.63,46.84-72.59L419.11,520l13,19.43,25.22,15.31,28.35,99,1.36,1.18L466.71,709s-28.9,9.27-53.1,17l-2.22.7-4.06,15.23,70.6-14.32,53.28,14.34v-13l-38.45-16,28.06-52.13,7-58.75-3.32-64.85,12-20.35,167.91-73.46,1.67-.73,4.94-7.22c19.81-2.57,49-6.26,54.84-6.75L888.6,470.24l113.52-5.86,3.39-27.11-45.43-18.56,50.7,7.18,5.37-18.25-65.4-23.49Zm19.71,26-52.87-5.57,46.14,1.71Zm-24.65-14.13,10,5.73-56.51-2.1-79.36-32.43-46.82-19.05ZM761.29,363.3,596.34,341l3.29-.71,6.2-8.56L578.31,310.5l95.48,16.4,11.41-6.6,86.66,35.26ZM404,276.33h27.32l1.27-1.19,34.83,16.31,81.75,14,8.22,18.1L486.28,331l-48.46-7.08V308.76Zm-12.28,0,37.65,36.05V325H406.64l8-4.89,6.12-7.56-29.41-36.22Zm239.81,22.12-123.81-8.69-13.11-2.25h110ZM549.59,297l94.54,6.63,31.11,12.66-3,1.76Zm7.47,15.72,16.11,15.56-18.87,5.53-45.48-.88,54.83-5.69ZM554.54,338h.33l26.5-7.77-24.22-23.39,3.25.56,33.08,25.48-38.08,8.16-23.87-3.49Zm207.58-27.69-36,12.87L587.22,266.69l-6.22-4ZM581.33,278l12.82,5.22H471.35v.26l-1.4-.24-31.47-14.74-9.16-16.9c15,.71,26,1.19,28.54,1.19a5.14,5.14,0,0,0,.52,0c1.06-.11,4.27-.47,11.6-9.46l1.86-2.29-9.13-15.47,67.95,19.94Zm-130.55-56,5,8.48-86.27,8.78L444,220.08Zm7.39,12.51,3.31,5.61a31.14,31.14,0,0,1-4.34,4.15c-4.69-.08-33.13-1.45-65-3ZM35.38,151H31.81l13.64-2.09,90.77,1h.32l10.22-1.75-1.43-8.37-9.59,1.64-90.23,1.71-17.5,5,2.26-3.23,47.16-35.55c16.09,3.4,62.36,13.7,74.6,23.47l3.29,18-54.74,17.56ZM138.79,371l-3.9-5.89-1.59-62.75,8.83,26.34,53.64,78Zm5.68,8.56,24.1,15.08,18.6,46.58-2.41-.88Zm35.77,32.87,22.42,34.49-10.13-3.72Zm90.68,59.62-61.61-22.68-32-49.26,24.53,15.35,13.83,20.11.92,1.33,66.25,33.79Zm89.44,155.51-9.59,5.55-13.91,60.66,22.42,13.76-36.4-11.28-39.35,10.34L327,688.47l13.94-57.36,20.58-55.18-7.59-62.52-9-16.19L378,505.84h28l-4.59,50.79ZM706.55,423.12l-2.82.36-.24.35-88.17,7.65L697,430l-92,21.82,79-13.47L527.62,506.77l-16,27.2,3.47,67.59L512.39,657l-27.53,52.58h0l-3.93,7.5,7.81,3.25h0l8.92,3.72-19.46-5.24L437.94,727c1.9-.62,36.36-14.22,36.36-14.22l25.5-61.4-5.44-4.76-26-99.66-29.53-16.67-35.05-45.1-10.48-3.7,7.79,11.62H379.63l-50.75-13.2L225.23,427,153.64,323,104.36,176l61.28-19.65-7.34-26.93-.94-.84c-15-13.35-65.29-23.15-72.84-24.62l.64-.47,34.65-39.08,82.19,12L326.66,185.05l1,.92L436,217.75l-83.31,21.57-16.56-.85-43.48-28,40.79,36.33,1.13.06c24.71,1.28,58.69,3,84.81,4.28l8.87,16.36-.32.31-79.2,2.87,4.06,8.87-31.44-6.32,31.84,13.49,13-2.74-5.27-7.68h24.93l29.42,36.22-3.5,4.33L398.52,325h-2.25c-5.11-1.8-42.84-17.68-67.73-28.24l-3.31,7.81c.16.07,69.23,27.65,70.42,27.65l42.17,1.27v-1l66.27,9.69L494.25,347,391.36,334.37l-1,8.43,105.39,12.89L519,344.32l36,5.26.76.11,16.14-3.46,191.72,25.94,2.56-1.88,8.23,9.76c-8.24-.31-28.59-1.06-48.81-1.77-15.31-.53-27.55-.94-36.37-1.19-10.77-.32-15.08-.45-17.11-.29-5.08-.47-68.43-7.73-109.67-15.23l-.8,4.4c.22,0,18.28,3.32,39.56,7.14l12.48,8.81-4,2.91L486.71,370.31l-.5,4.22,125.67,19.12,16.34-11.81L618,376.14c15,2.68,27.08,4.8,35.87,6.31,5.44.94,9.68,1.65,12.6,2.11,3.68.59,5.31.85,6.43.67,5.95-.16,65.49,2,104.88,3.44l2.57.1,5-8.77L773,365.27l8.11-5.95L912.42,413l-110.8,14.33L768.85,416.2h0l-.09,0L715.15,398l-165.71,3.46L539,407.3l-96.31-27.51,86.4,33-7.9,4.42L392.77,395,290.2,322.75l-17.06-43,9.18,47.11L387.78,407,521.2,430.19l2.23.38,29.45-16.46,160.3-3.34,24.63,8.35-1.94.24C721.31,421.19,706.7,423.1,706.55,423.12Zm254.68,9.81-118.34-6.68,77.49-10ZM810.76,430.4l9.11-1.17,147.72,24.18-77.21,4ZM976.14,453l14.74-1.4-.08.64Zm15.28-5.71-22.25,2.1-109.4-17.9,107.34,6.05.12-2.13,24.43,10ZM911.88,399l-23.64-9.67,56.32,5.94.83.47L982.21,409Z"/><path class="cls-1" d="M672,376.8c-.31,0-.57.06-.79.1A5.09,5.09,0,0,1,672,376.8Z"/><polygon class="cls-1" points="764.76 428.26 764.76 428.26 764.76 428.26 764.76 428.26"/><circle class="cls-1" cx="185.95" cy="111.9" r="16.45" transform="translate(66.99 293.42) rotate(-87.8)"/><path class="cls-1" d="M186,88.34a23.56,23.56,0,1,0,23.56,23.56A23.59,23.59,0,0,0,186,88.34Zm0,42.88a19.32,19.32,0,1,1,19.31-19.32A19.32,19.32,0,0,1,186,131.22Z"/><polygon class="cls-1" points="724.59 322.53 760.61 309.67 579.49 262.04 585.7 266.02 724.59 322.53"/><path class="cls-1" d="M470.33,240.39l-1.87,2.29c-7.32,9-10.54,9.35-11.59,9.47h-.52c-2.59,0-13.54-.47-28.55-1.18l9.16,16.9,31.47,14.73,1.41.24v-.26h122.8l-12.83-5.21-50.66-32.52-68-19.94Z"/><polygon class="cls-1" points="591.97 332.24 558.89 306.76 555.63 306.2 579.85 329.59 553.35 337.36 553.03 337.36 530.01 336.91 553.89 340.4 591.97 332.24"/><polygon class="cls-1" points="140.62 328.06 131.79 301.71 133.38 364.46 137.28 370.35 194.25 406.02 140.62 328.06"/><path class="cls-1" d="M460,239.54l-3.32-5.61-66,6.72c31.86,1.59,60.29,3,65,3A30.53,30.53,0,0,0,460,239.54Z"/><polygon class="cls-1" points="454.28 229.91 449.27 221.42 442.45 219.42 368 238.69 454.28 229.91"/><polygon class="cls-1" points="507.31 332.23 552.78 333.11 571.65 327.57 555.54 312.02 562.14 326.53 507.31 332.23"/><polygon class="cls-1" points="783.4 346.46 862.75 378.88 919.27 380.99 909.27 375.26 736.57 327.4 783.4 346.46"/><polygon class="cls-1" points="683.69 319.64 672.27 326.23 576.79 309.83 604.32 331.04 598.12 339.61 594.82 340.31 759.78 362.63 770.35 354.89 683.69 319.64"/><polygon class="cls-1" points="673.73 315.59 642.62 302.93 548.08 296.29 670.68 317.35 673.73 315.59"/><polygon class="cls-1" points="933.92 389.39 927.19 385.53 881.06 383.81 933.92 389.39"/><polygon class="cls-1" points="484.76 330.3 555.83 322.92 547.62 304.82 465.87 290.79 431.04 274.48 429.76 275.66 402.44 275.66 436.3 308.09 436.3 323.21 484.76 330.3"/><polygon class="cls-1" points="506.16 289.09 629.98 297.79 603.07 286.84 493.05 286.84 506.16 289.09"/><polygon class="cls-1" points="413.1 319.45 405.13 324.34 427.81 324.34 427.81 311.72 390.17 275.66 389.81 275.66 419.23 311.88 413.1 319.45"/><polygon class="cls-1" points="376.48 505.17 343.37 496.56 352.38 512.74 359.97 575.26 339.38 630.45 325.45 687.8 282.01 705.95 321.36 695.6 357.77 706.88 335.34 693.13 349.25 632.46 358.84 626.92 399.9 555.96 404.5 505.17 376.48 505.17"/><polygon class="cls-1" points="818.36 428.56 809.25 429.74 888.86 456.73 966.08 452.74 818.36 428.56"/><polygon class="cls-1" points="965.6 436.85 858.26 430.79 967.65 448.7 989.91 446.59 990.14 444.7 965.72 434.72 965.6 436.85"/><polygon class="cls-1" points="959.71 432.26 918.86 415.57 841.37 425.59 959.71 432.26"/><polygon class="cls-1" points="943.05 394.62 886.72 388.68 910.37 398.34 980.7 408.31 943.87 395.09 943.05 394.62"/><polygon class="cls-1" points="167.05 394 142.95 378.91 183.25 439.69 185.65 440.58 167.05 394"/><path class="cls-1" d="M711.67,410.11l-160.3,3.34L521.91,429.9l-2.22-.38L386.26,406.35,280.8,326.23l-9.17-47.11,17.05,43,102.58,72.21,128.38,22.3,7.91-4.42-86.4-33.05,96.3,27.51,10.48-5.85,165.71-3.45,53.61,18.17.08,0h0l32.78,11.11,110.8-14.32L779.58,358.65l-8.12,6,12.43,14.74-5,8.77-2.57-.1c-39.39-1.49-98.94-3.6-104.89-3.45-1.12.18-2.75-.08-6.42-.66-2.92-.47-7.16-1.18-12.61-2.11-8.79-1.52-20.85-3.64-35.87-6.32l10.19,5.71L610.36,393,484.7,373.86l.5-4.21,122.87,14.52,4-2.91-12.48-8.81c-21.27-3.82-39.33-7.11-39.56-7.15l.8-4.39c41.24,7.5,104.59,14.76,109.68,15.22,2-.15,6.34,0,17.11.29,8.82.26,21.06.66,36.37,1.19,20.21.71,40.57,1.46,48.8,1.77l-8.22-9.75L762,371.51,570.31,345.56,554.17,349l-.75-.11-36-5.25L494.2,355,388.81,342.13l1-8.42,102.9,12.58,9.83-4.81-66.27-9.69v1l-42.16-1.28c-1.2,0-70.26-27.57-70.43-27.64l3.32-7.82c24.89,10.56,62.62,26.44,67.72,28.25H397l13.26-8.13,3.5-4.32-29.41-36.23H359.41l5.28,7.69-13,2.73-31.84-13.49,31.44,6.32L347.23,270l79.2-2.87.33-.3-8.87-16.37c-26.12-1.26-60.11-3-84.82-4.28l-1.12-.06-40.79-36.33,43.48,28,16.55.85,83.32-21.56L326.2,185.3l-1.05-.92L200.48,75.67l-82.19-12L83.64,102.78l-.63.48c7.55,1.46,57.81,11.26,72.83,24.62l.95.83,7.34,26.93L102.84,175.3l49.28,147,71.6,104.06,103.64,52.86,50.75,13.21H399.6l-7.79-11.63,10.47,3.7,35.06,45.11,29.52,16.67,26,99.66,5.44,4.75-25.5,61.4s-34.47,13.6-36.37,14.23l40.27-8.17,19.45,5.23-8.92-3.71h0l-7.8-3.26,3.92-7.49h0l27.54-52.59,2.66-55.45-3.46-67.59,16-27.19,156.42-68.43-79,13.47,92-21.83-81.71,1.49L702,423.17l.24-.35,2.83-.37c.14,0,14.75-1.92,29.31-3.75l1.94-.25ZM184.43,134.8A23.56,23.56,0,1,1,208,111.24,23.58,23.58,0,0,1,184.43,134.8Z"/><polygon class="cls-1" points="178.73 411.79 191.01 442.55 201.14 446.28 178.73 411.79"/><polygon class="cls-1" points="214.14 434.92 200.31 414.81 175.78 399.46 207.8 448.73 269.41 471.4 281.31 470.04 215.05 436.25 214.14 434.92"/><path class="cls-1" d="M914.22,363.41,764.3,321.87l17.31-6.18-7.12-15.54L544.71,239.72l-10.22-6.56-202-59.29-125-109L206,63.61l-92.71-13.5L75,93.38,19.48,135.2,0,163H32.2l58.28,15.46,31.58,94.21-1.32,95.75,54.13,81.64,93.76,36.54,37-4.2,16.6,8.46.62.32.56.15,16.87,25.77,9.26,58.7-19,51.43-12.71,54.55-46,19.2v16.4l49.37-13,52.31,16.2V706.56l-29.06-17.83,14.06-48.26,8.56-6.63,46.84-72.59,3.72-41.94,13,19.43,25.22,15.31,28.35,99,1.35,1.18-20.35,54.07s-28.9,9.26-53.09,17l-2.22.71-4.06,15.23,70.6-14.32,53.27,14.33v-13l-38.45-16,28.06-52.14,7-58.74L523,536.47l12-20.35,167.91-73.46,1.68-.73,4.94-7.22c19.81-2.57,49-6.26,54.84-6.74l122.73,41.6,113.52-5.86L1004,436.6,958.57,418l50.69,7.19,5.37-18.26-65.4-23.49Zm19.7,26-52.86-5.58,46.13,1.72Zm-24.65-14.13,10,5.73-56.52-2.11L783.4,346.46l-46.83-19ZM759.78,362.63l-165-22.32,3.3-.7,6.2-8.57-27.53-21.21,95.48,16.4,11.42-6.59,86.65,35.25Zm-357.34-87h27.32l1.28-1.18,34.83,16.3,81.75,14,8.21,18.1-71.07,7.38-48.46-7.09V308.09Zm-12.27,0,37.64,36.06v12.62H405.12l8-4.89,6.13-7.57-29.42-36.22ZM630,297.79l-123.82-8.7-13.11-2.25h110Zm-81.9-1.5,94.54,6.64,31.11,12.66-3.05,1.76ZM555.55,312l16.1,15.55-18.87,5.54-45.47-.88,54.83-5.7ZM553,337.36h.32l26.5-7.77L555.63,306.2l3.26.56L592,332.24l-38.08,8.16L530,336.91Zm207.58-27.69-36,12.86L585.7,266l-6.21-4Zm-180.8-32.29,12.83,5.21H469.84v.26l-1.41-.24L437,267.88,427.8,251c15,.71,26,1.18,28.55,1.18h.52c1.05-.12,4.27-.48,11.59-9.47l1.87-2.29-9.14-15.47,68,19.94Zm-130.54-56,5,8.49L368,238.69l74.45-19.27Zm7.38,12.51,3.32,5.61a30.53,30.53,0,0,1-4.35,4.15c-4.69-.08-33.12-1.45-65-3ZM33.86,150.29H30.3l13.63-2.08,90.78.95H135l10.22-1.75L143.81,139l-9.58,1.65L44,142.38l-17.5,5,2.25-3.22L75.92,108.6c16.08,3.4,62.36,13.71,74.6,23.47l3.28,18L99.07,167.59ZM137.28,370.35l-3.9-5.88-1.59-62.76,8.83,26.35,53.64,78Zm5.67,8.56L167.05,394l18.6,46.58-2.4-.89Zm35.78,32.88,22.41,34.49L191,442.55Zm90.68,59.61L207.8,448.73l-32-49.27,24.53,15.35,13.83,20.11.91,1.33L281.3,470Zm89.43,155.52-9.59,5.54-13.91,60.67,22.43,13.75L321.36,695.6,282,706l43.44-18.15,13.93-57.36L360,575.26l-7.59-62.52-9-16.18,33.11,8.61h28L399.9,556ZM705,422.45l-2.83.37-.24.35-88.17,7.64,81.71-1.49-92,21.83,79-13.47L526.1,506.11l-16,27.19,3.46,67.59-2.66,55.45-27.54,52.59h0l-3.92,7.49,7.8,3.26h0l8.92,3.71-19.45-5.23-40.27,8.17c1.9-.63,36.37-14.23,36.37-14.23l25.5-61.4L492.85,646l-26-99.66-29.52-16.67-35.06-45.11-10.47-3.7,7.79,11.63H378.11l-50.75-13.21L223.72,426.37l-71.6-104.06-49.28-147,61.29-19.66-7.34-26.93-.95-.83c-15-13.36-65.28-23.16-72.83-24.62l.63-.48L118.29,63.7l82.19,12L325.15,184.38l1.05.92,108.31,31.79-83.32,21.56-16.55-.85-43.48-28L332,246.16l1.12.06c24.71,1.28,58.7,3,84.82,4.28l8.87,16.37-.33.3L347.23,270l4.06,8.87-31.44-6.32,31.84,13.49,13-2.73-5.28-7.69h24.94l29.41,36.23-3.5,4.32L397,324.34h-2.25c-5.1-1.81-42.83-17.69-67.72-28.25l-3.32,7.82c.17.07,69.23,27.64,70.43,27.64l42.16,1.28v-1l66.27,9.69-9.83,4.81-102.9-12.58-1,8.42L494.2,355l23.25-11.36,36,5.25.75.11,16.14-3.46L762,371.51l2.57-1.88,8.22,9.75c-8.23-.31-28.59-1.06-48.8-1.77-15.31-.53-27.55-.93-36.37-1.19-10.77-.32-15.08-.44-17.11-.29-5.09-.46-68.44-7.72-109.68-15.22l-.8,4.39c.23,0,18.29,3.33,39.56,7.15l12.48,8.81-4,2.91L485.2,369.65l-.5,4.21L610.36,393l16.35-11.81-10.19-5.71c15,2.68,27.08,4.8,35.87,6.32,5.45.93,9.69,1.64,12.61,2.11,3.67.58,5.3.84,6.42.66,6-.15,65.5,2,104.89,3.45l2.57.1,5-8.77L771.46,364.6l8.12-6,131.33,53.67-110.8,14.32-32.78-11.11h0l-.08,0-53.61-18.17-165.71,3.45-10.48,5.85-96.3-27.51,86.4,33.05-7.91,4.42-128.38-22.3L288.68,322.08l-17.05-43,9.17,47.11,105.46,80.12,133.43,23.17,2.22.38,29.46-16.45,160.3-3.34,24.62,8.34-1.94.25C719.79,420.53,705.18,422.43,705,422.45Zm254.67,9.81-118.34-6.67,77.49-10Zm-150.46-2.52,9.11-1.18,147.72,24.18-77.22,4ZM974.63,452.3l14.74-1.4-.08.65Zm15.28-5.71-22.26,2.11L858.26,430.79l107.34,6.06.12-2.13,24.42,10Zm-79.54-48.25-23.65-9.66,56.33,5.94.82.47,36.83,13.22Z"/><polygon class="cls-1" points="162.7 53.99 104.77 39.92 80.28 45.71 78.1 51.56 105.81 58.11 113.43 50.03 173.76 59.03 162.7 53.99"/><path class="cls-1" d="M78.1,51.56l2.18-5.85,24.49-5.79L162.7,54l11.06,5L230.14,84.7l-13.5-50.89L171.82,3.18,150.76.33l-27.7,10.72-13.3,17.49L106,27.4,71.8,35.11,65,50.09,70.4,62.44l26,5.75,9.4-10.08Zm128.56-9.65L215,67.61,176.57,48.94l-1.44-22.5L173.7,19ZM128.83,19.36l23.63-6.58,14.23,2.13,1.37,12.52-.77,17L167,44.3,120.12,30.62Z"/><polygon class="cls-1" points="176.57 48.94 214.99 67.61 206.66 41.91 173.7 19.03 175.13 26.44 176.57 48.94"/><polygon class="cls-1" points="167.29 44.43 168.06 27.43 166.69 14.91 152.46 12.78 128.83 19.36 120.12 30.63 167.01 44.3 167.29 44.43"/><path class="cls-1" d="M1865.57,413.47c3.22,0,3.22-5,0-5s-3.22,5,0,5Z"/></g><g id="Layer_4" data-name="Layer 4"><path class="cls-2" d="M154.32,150.16l-3.29-18c-12.24-9.77-58.51-20.07-74.6-23.47L29.27,144.28,27,147.51l17.5-5,90.23-1.71,9.59-1.64,1.43,8.37-10.22,1.75h-.32l-90.77-1-13.64,2.09h3.57l65.2,17.3Z"/><polygon class="cls-3" points="763.76 427.72 763.76 427.72 763.76 427.72 763.76 427.72"/><path class="cls-3" d="M670.19,376.36c.22,0,.48-.07.79-.1A5.09,5.09,0,0,0,670.19,376.36Z"/><polygon class="cls-3" points="975.14 452.43 989.8 451.67 989.88 451.03 975.14 452.43"/><polygon class="cls-1" points="725.11 322.66 761.12 309.79 580 262.16 586.22 266.15 725.11 322.66"/><path class="cls-1" d="M470.84,240.52,469,242.81c-7.33,9-10.54,9.35-11.6,9.46l-.52,0c-2.58,0-13.54-.48-28.54-1.19l9.16,16.9L469,282.74l1.4.24v-.26h122.8l-12.82-5.22L529.66,245l-67.95-19.94Z"/><polygon class="cls-1" points="592.48 332.37 559.4 306.89 556.15 306.33 580.37 329.72 553.87 337.49 553.54 337.49 530.53 337.04 554.4 340.53 592.48 332.37"/><polygon class="cls-1" points="141.13 328.18 132.3 301.84 133.89 364.59 137.79 370.48 194.77 406.14 141.13 328.18"/><path class="cls-1" d="M460.48,239.67l-3.31-5.61-66,6.72c31.85,1.59,60.29,3,65,3A31.14,31.14,0,0,0,460.48,239.67Z"/><polygon class="cls-1" points="454.79 230.03 449.78 221.55 442.96 219.54 368.51 238.81 454.79 230.03"/><polygon class="cls-1" points="507.82 332.35 553.3 333.23 572.17 327.7 556.06 312.14 562.65 326.66 507.82 332.35"/><polygon class="cls-1" points="783.91 346.58 863.27 379.01 919.78 381.11 909.79 375.38 737.09 327.53 783.91 346.58"/><polygon class="cls-1" points="684.2 319.76 672.79 326.36 577.3 309.96 604.83 331.17 598.63 339.73 595.34 340.44 760.29 362.76 770.86 355.02 684.2 319.76"/><polygon class="cls-1" points="674.24 315.71 643.13 303.05 548.59 296.42 671.2 317.47 674.24 315.71"/><polygon class="cls-1" points="934.44 389.51 927.71 385.65 881.57 383.94 934.44 389.51"/><polygon class="cls-1" points="485.28 330.42 556.35 323.05 548.13 304.95 466.38 290.91 431.55 274.6 430.28 275.79 402.96 275.79 436.82 308.22 436.82 323.34 485.28 330.42"/><polygon class="cls-1" points="506.68 289.22 630.49 297.91 603.59 286.97 493.57 286.97 506.68 289.22"/><polygon class="cls-1" points="413.62 319.57 405.64 324.46 428.33 324.46 428.33 311.84 390.68 275.79 390.33 275.79 419.74 312.01 413.62 319.57"/><polygon class="cls-1" points="377 505.3 343.88 496.68 352.89 512.87 360.48 575.39 339.9 630.57 325.96 687.93 282.53 706.07 321.88 695.73 358.28 707.01 335.86 693.25 349.77 632.59 359.36 627.04 400.42 556.09 405.01 505.3 377 505.3"/><polygon class="cls-1" points="818.87 428.69 809.76 429.87 889.38 456.85 966.59 452.87 818.87 428.69"/><polygon class="cls-1" points="966.11 436.97 858.77 430.92 968.17 448.82 990.42 446.71 990.66 444.82 966.23 434.84 966.11 436.97"/><polygon class="cls-1" points="960.23 432.39 919.38 415.7 841.88 425.71 960.23 432.39"/><polygon class="cls-1" points="943.57 394.74 887.24 388.81 910.88 398.47 981.21 408.44 944.39 395.21 943.57 394.74"/><polygon class="cls-1" points="167.56 394.12 143.47 379.04 183.76 439.82 186.17 440.7 167.56 394.12"/><path class="cls-1" d="M712.18,410.23l-160.3,3.34L522.43,430l-2.23-.38L386.78,406.48,281.32,326.36l-9.18-47.11,17.06,43,102.57,72.21,128.39,22.29,7.9-4.42-86.4-33L538,406.76l10.47-5.85,165.71-3.45,53.61,18.17.09,0h0l32.77,11.11,110.8-14.32L780.09,358.78l-8.11,6,12.43,14.73-5,8.77-2.57-.09c-39.39-1.49-98.93-3.61-104.88-3.45-1.12.18-2.75-.08-6.43-.67-2.92-.46-7.16-1.17-12.6-2.11-8.79-1.51-20.86-3.63-35.87-6.31l10.18,5.7-16.34,11.81L485.21,374l.5-4.22,122.88,14.52,4-2.91-12.48-8.81c-21.28-3.82-39.34-7.1-39.56-7.14l.8-4.4c41.24,7.5,104.59,14.76,109.67,15.23,2-.16,6.34,0,17.11.29,8.82.25,21.06.66,36.37,1.19,20.22.71,40.57,1.46,48.81,1.77l-8.23-9.76-2.56,1.88L570.83,345.69l-16.14,3.46-.76-.11-36-5.26-23.25,11.37L389.33,342.26l1-8.43,102.89,12.59,9.84-4.81-66.27-9.69v1l-42.17-1.27c-1.19,0-70.26-27.58-70.42-27.65l3.31-7.81c24.89,10.56,62.62,26.44,67.73,28.24h2.25l13.26-8.12,3.5-4.33-29.42-36.22H359.93l5.27,7.69-13,2.73-31.84-13.49L351.81,279l-4.06-8.87L427,267.3l.32-.31-8.87-16.36c-26.12-1.27-60.1-3-84.81-4.28l-1.13-.06L291.67,210l43.48,28,16.56.85L435,217.21,326.71,185.43l-1-.92L201,75.79l-82.19-12L84.16,102.91l-.64.47c7.55,1.47,57.81,11.27,72.84,24.62l.94.84,7.34,26.93-61.28,19.65,49.28,147L224.23,426.5l103.65,52.86,50.75,13.2h21.48l-7.79-11.62,10.48,3.7,35.05,45.1,29.53,16.67,26,99.66,5.44,4.76-25.5,61.4s-34.46,13.6-36.36,14.22l40.26-8.17,19.46,5.24-8.92-3.72h0l-7.81-3.25,3.93-7.5h0l27.53-52.58L514.06,601l-3.47-67.59,16-27.2L683,437.8l-79,13.47,92-21.82-81.71,1.49,88.17-7.65.24-.35,2.82-.36c.15,0,14.76-1.93,29.32-3.75l1.94-.25ZM185,134.92a23.56,23.56,0,1,1,23.56-23.56A23.58,23.58,0,0,1,185,134.92Z"/><polygon class="cls-1" points="179.24 411.92 191.53 442.68 201.66 446.4 179.24 411.92"/><polygon class="cls-1" points="214.65 435.05 200.82 414.94 176.29 399.58 208.31 448.85 269.92 471.53 281.82 470.17 215.57 436.38 214.65 435.05"/><path class="cls-4" d="M185,92.05a19.32,19.32,0,1,0,19.31,19.31A19.32,19.32,0,0,0,185,92.05Z"/><path class="cls-5" d="M914.73,363.54,764.81,322l17.32-6.19L775,300.28,545.23,239.85,535,233.29,333,174,208,65l-1.41-1.23-92.7-13.5L75.47,93.5,20,135.33.51,163.15h32.2L91,178.62l31.58,94.21-1.33,95.75,54.13,81.64,93.77,36.54,37-4.21L322.71,491l.62.32.56.14,16.87,25.78L350,576l-19,51.44-12.7,54.55-46,19.2v16.4l49.37-13L374,720.76V706.68l-29.06-17.82L359,640.6l8.57-6.63,46.84-72.59,3.71-41.94,13,19.43,25.22,15.31,28.35,99,1.36,1.18-20.35,54.06s-28.9,9.27-53.1,17l-2.22.7-4.06,15.23L476.93,727l53.28,14.34v-13l-38.45-16,28.06-52.13,7-58.75-3.32-64.85,12-20.35,167.91-73.46,1.67-.73,4.94-7.22c19.81-2.57,49-6.26,54.84-6.75L887.6,469.7l113.52-5.86,3.39-27.11-45.43-18.56,50.7,7.18,5.37-18.25-65.4-23.49Zm19.71,26-52.87-5.57,46.14,1.72Zm-24.65-14.13,10,5.73L863.27,379l-79.36-32.43-46.82-19.05Zm-149.5-12.62L595.34,340.44l3.29-.71,6.2-8.56L577.31,310l95.48,16.4,11.41-6.6L770.86,355ZM403,275.79h27.32l1.27-1.19,34.83,16.31,81.75,14,8.22,18.1-71.07,7.37-48.46-7.08V308.22Zm-12.28,0,37.65,36v12.62H405.64l8-4.89,6.12-7.56-29.41-36.22Zm239.81,22.12-123.81-8.69L493.57,287h110Zm-81.9-1.49,94.54,6.63,31.11,12.66-3,1.76Zm7.47,15.72,16.11,15.56-18.87,5.53-45.48-.88,54.83-5.69Zm-2.52,25.34h.33l26.5-7.77-24.22-23.39,3.25.56,33.08,25.48-38.08,8.16L530.53,337Zm207.58-27.69-36,12.87L586.22,266.15l-6.22-4ZM580.33,277.5l12.82,5.22H470.35V283l-1.4-.24L437.48,268l-9.16-16.9c15,.71,26,1.19,28.54,1.19l.52,0c1.06-.11,4.27-.47,11.6-9.46l1.86-2.29-9.13-15.47L529.66,245ZM449.78,221.55l5,8.48-86.27,8.78L443,219.54Zm7.39,12.51,3.31,5.61a31.14,31.14,0,0,1-4.34,4.15c-4.69-.08-33.13-1.45-65-3ZM34.38,150.42H30.81l13.64-2.09,90.77,1h.32l10.22-1.75-1.43-8.37-9.59,1.64-90.23,1.71-17.5,5,2.26-3.23,47.16-35.55c16.09,3.4,62.36,13.7,74.6,23.47l3.29,18L99.58,167.72ZM137.79,370.48l-3.9-5.89-1.59-62.75,8.83,26.34,53.64,78Zm5.68,8.56,24.1,15.08,18.6,46.58-2.41-.88Zm35.77,32.88,22.42,34.48-10.13-3.72Zm90.68,59.61-61.61-22.68-32-49.26,24.53,15.35,13.83,20.11.92,1.33,66.25,33.79ZM359.36,627l-9.59,5.55-13.91,60.66L358.28,707l-36.4-11.28-39.35,10.34L326,687.93l13.94-57.36,20.58-55.18-7.59-62.52-9-16.19L377,505.3h28l-4.59,50.79ZM705.55,422.58l-2.82.36-.24.35-88.17,7.65L696,429.45l-92,21.82,79-13.47L526.62,506.23l-16,27.2L514.06,601l-2.67,55.45-27.53,52.58h0l-3.93,7.5,7.81,3.25h0l8.92,3.72-19.46-5.24-40.26,8.17c1.9-.62,36.36-14.22,36.36-14.22l25.5-61.4-5.44-4.76-26-99.66-29.53-16.67-35.05-45.1-10.48-3.7,7.79,11.62H378.63l-50.75-13.2L224.23,426.5,152.64,322.44l-49.28-147,61.28-19.65-7.34-26.93-.94-.84c-15-13.35-65.29-23.15-72.84-24.62l.64-.47,34.65-39.08,82.19,12L325.66,184.51l1,.92L435,217.21l-83.31,21.57-16.56-.85-43.48-28,40.79,36.33,1.13.06c24.71,1.28,58.69,3,84.81,4.28L427.27,267l-.32.31-79.2,2.87,4.06,8.87-31.44-6.32,31.84,13.49,13-2.73-5.27-7.69h24.93L414.28,312l-3.5,4.33-13.26,8.12h-2.25c-5.11-1.8-42.84-17.68-67.73-28.24L324.23,304c.16.07,69.23,27.65,70.42,27.65L436.82,333v-1l66.27,9.69-9.84,4.81L390.36,333.83l-1,8.43,105.39,12.89L518,343.78l36,5.26.76.11,16.14-3.46,191.72,25.94,2.56-1.88,8.23,9.76c-8.24-.31-28.59-1.06-48.81-1.77-15.31-.53-27.55-.94-36.37-1.19-10.77-.32-15.08-.45-17.11-.29-5.08-.47-68.43-7.73-109.67-15.23l-.8,4.4c.22,0,18.28,3.32,39.56,7.14l12.48,8.81-4,2.91L485.71,369.77l-.5,4.22,125.67,19.12,16.34-11.81L617,375.6c15,2.68,27.08,4.8,35.87,6.31,5.44.94,9.68,1.65,12.6,2.11,3.68.59,5.31.85,6.43.67,5.95-.16,65.49,2,104.88,3.45l2.57.09,5-8.77L772,364.73l8.11-6,131.33,53.67-110.8,14.32-32.77-11.11h0l-.09,0-53.61-18.17-165.71,3.45L538,406.76l-96.31-27.51,86.4,33-7.9,4.42L391.77,394.42,289.2,322.21l-17.06-43,9.18,47.11,105.46,80.12L520.2,429.65l2.23.38,29.45-16.46,160.3-3.34,24.63,8.35-1.94.25C720.31,420.65,705.7,422.56,705.55,422.58Zm254.68,9.81-118.34-6.68,77.49-10Zm-150.47-2.52,9.11-1.18,147.72,24.18-77.21,4Zm165.38,22.56,14.74-1.4-.08.64Zm15.28-5.71-22.25,2.11-109.4-17.91L966.11,437l.12-2.13,24.43,10Zm-79.54-48.25-23.64-9.67,56.32,5.94.83.47,36.82,13.23Z"/><path class="cls-5" d="M671,376.26c-.31,0-.57.06-.79.1A5.09,5.09,0,0,1,671,376.26Z"/><polygon class="cls-5" points="763.76 427.72 763.76 427.72 763.76 427.72 763.76 427.72"/><circle class="cls-6" cx="184.95" cy="111.36" r="16.45" transform="translate(66.57 291.9) rotate(-87.8)"/><path class="cls-5" d="M185,87.81a23.56,23.56,0,1,0,23.56,23.55A23.58,23.58,0,0,0,185,87.81Zm0,42.87a19.32,19.32,0,1,1,19.31-19.32A19.32,19.32,0,0,1,185,130.68Z"/><polygon class="cls-7" points="163.22 54.12 105.28 40.05 80.8 45.84 78.61 51.68 106.33 58.24 113.95 50.16 174.28 59.15 163.22 54.12"/><path class="cls-8" d="M78.61,51.68l2.19-5.84,24.48-5.79,57.94,14.07,11.06,5,56.38,25.68L217.15,33.94,172.34,3.31,151.28.46,123.57,11.18,110.28,28.67l-3.76-1.14L72.31,35.24l-6.76,15,5.36,12.35,26,5.75,9.4-10.08ZM207.18,42l8.32,25.71L177.08,49.07l-1.43-22.5-1.44-7.41ZM129.35,19.49,153,12.91,167.21,15l1.36,12.52-.77,17-.27-.13L120.64,30.75Z"/><polygon class="cls-9" points="177.08 49.07 215.5 67.74 207.18 42.03 174.22 19.16 175.65 26.57 177.08 49.07"/><polygon class="cls-9" points="167.8 44.56 168.57 27.56 167.21 15.04 152.97 12.91 129.35 19.49 120.64 30.75 167.53 44.43 167.8 44.56"/></g><g id="Layer_3" data-name="Layer 3"><polygon class="cls-7" points="163.22 53.66 105.28 39.59 80.8 45.38 78.61 51.22 106.33 57.78 113.95 49.7 174.28 58.69 163.22 53.66"/><path class="cls-8" d="M78.61,51.22l2.19-5.84,24.48-5.79,57.94,14.07,11.06,5,56.38,25.68L217.15,33.48,172.34,2.85,151.28,0,123.57,10.72,110.28,28.21l-3.76-1.14L72.31,34.78l-6.76,15,5.36,12.35,26,5.75,9.4-10.08Zm128.57-9.65,8.32,25.71L177.08,48.61l-1.43-22.5-1.44-7.41ZM129.35,19,153,12.45l14.24,2.13,1.36,12.52-.77,17-.27-.13L120.64,30.29Z"/><polygon class="cls-9" points="177.08 48.61 215.5 67.28 207.18 41.57 174.22 18.7 175.65 26.11 177.08 48.61"/><polygon class="cls-9" points="167.8 44.1 168.57 27.1 167.21 14.58 152.97 12.45 129.35 19.03 120.64 30.29 167.53 43.97 167.8 44.1"/></g></g></svg>